<svg width="1209" height="456" viewBox="0 0 1209 456" fill="none" xmlns="http://www.w3.org/2000/svg">
<mask id="mask0_4924_12493" style="mask-type:alpha" maskUnits="userSpaceOnUse" x="0" y="0" width="1209" height="456">
<rect x="0.95166" width="1208" height="456" rx="32" fill="url(#paint0_linear_4924_12493)"/>
</mask>
<g mask="url(#mask0_4924_12493)">
<path d="M940.4 66.6923L1014.3 384.966L700.609 482.024L723.956 217.334L940.4 66.6923Z" stroke="url(#paint1_linear_4924_12493)" stroke-width="0.901776" stroke-dasharray="0.9 4.51 1.8 4.51"/>
<path d="M701.117 481.271L666.738 862.222L461.326 896.603L448.84 457.141L701.117 481.271Z" stroke="url(#paint2_linear_4924_12493)" stroke-opacity="0.3" stroke-width="0.901776" stroke-dasharray="0.9 4.51 1.8 4.51"/>
<circle cx="200.141" cy="-84.8109" r="937.951" transform="rotate(120 200.141 -84.8109)" stroke="url(#paint3_radial_4924_12493)" stroke-width="1.35266"/>
<circle cx="200.141" cy="-84.8103" r="755.28" transform="rotate(120 200.141 -84.8103)" stroke="url(#paint4_radial_4924_12493)" stroke-opacity="0.8" stroke-width="1.35266"/>
<circle cx="200.141" cy="-84.8101" r="604.097" transform="rotate(120 200.141 -84.8101)" stroke="url(#paint5_radial_4924_12493)" stroke-opacity="0.7" stroke-width="1.35266"/>
<circle cx="200.14" cy="-84.8103" r="465.851" transform="rotate(120 200.14 -84.8103)" stroke="url(#paint6_linear_4924_12493)" stroke-opacity="0.6" stroke-width="1.35266"/>
<circle cx="200.141" cy="-84.8107" r="335.686" transform="rotate(120 200.141 -84.8107)" stroke="url(#paint7_linear_4924_12493)" stroke-opacity="0.5" stroke-width="1.35266"/>
<circle cx="200.141" cy="-84.8111" r="229.272" transform="rotate(120 200.141 -84.8111)" stroke="url(#paint8_linear_4924_12493)" stroke-opacity="0.2" stroke-width="1.35266"/>
<path d="M1184.08 483.266L147.575 -115.16" stroke="url(#paint9_linear_4924_12493)" stroke-width="1.35266"/>
<path d="M993.312 772.906L147.009 -73.3973" stroke="url(#paint10_linear_4924_12493)" stroke-width="1.35266" stroke-dasharray="0.9 4.51 1.8 4.51"/>
<path d="M757.368 1062.01L158.942 25.5009" stroke="url(#paint11_linear_4924_12493)" stroke-width="1.35266"/>
<path d="M1339.53 173.236L183.46 -136.533" stroke="url(#paint12_linear_4924_12493)" stroke-width="1.35266" stroke-dasharray="0.9 4.51 1.8 4.51"/>
<circle cx="8.00068" cy="8.00068" r="8.00068" transform="matrix(-0.866025 -0.5 -0.5 0.866025 865.746 290.24)" fill="#FF874E"/>
<circle opacity="0.7" cx="8.00068" cy="8.00068" r="8.00068" transform="matrix(-0.866025 -0.5 -0.5 0.866025 951.597 63.4023)" fill="#FF874E"/>
<circle cx="10.4947" cy="10.4947" r="10.4947" transform="matrix(-0.866025 -0.5 -0.5 0.866025 1027.35 380.663)" fill="#FC5200"/>
<circle opacity="0.7" cx="10.4947" cy="10.4947" r="10.4947" transform="matrix(-0.866025 -0.5 -0.5 0.866025 1131.24 109.529)" fill="#FC5200"/>
<circle cx="6.01383" cy="6.01383" r="6.01383" transform="matrix(-0.866025 -0.5 -0.5 0.866025 732.105 215.376)" fill="#FEC4A4"/>
<circle cx="6.01383" cy="6.01383" r="6.01383" transform="matrix(-0.866025 -0.5 -0.5 0.866025 601.173 371.282)" fill="#FEC4A4"/>
<circle cx="6.01383" cy="6.01383" r="6.01383" transform="matrix(-0.866025 -0.5 -0.5 0.866025 801.659 24.0303)" fill="#FEC4A4"/>
<circle cx="3.83437" cy="3.83437" r="3.83437" transform="matrix(-0.866025 -0.5 -0.5 0.866025 609.403 147.051)" fill="#FFEADB"/>
<circle cx="3.83437" cy="3.83437" r="3.83437" transform="matrix(-0.866025 -0.5 -0.5 0.866025 500.803 274.043)" fill="#FFEADB"/>
<circle cx="3.83437" cy="3.83437" r="3.83437" transform="matrix(-0.866025 -0.5 -0.5 0.866025 355.061 354.843)" fill="#FFEADB"/>
<circle cx="2.77308" cy="2.77308" r="2.77308" transform="matrix(-0.866025 -0.5 -0.5 0.866025 495.226 82.3567)" fill="#FFEADB"/>
<circle opacity="0.9" cx="2.77308" cy="2.77308" r="2.77308" transform="matrix(-0.866025 -0.5 -0.5 0.866025 406.7 181.811)" fill="#FFEADB"/>
<circle opacity="0.7" cx="2.77308" cy="2.77308" r="2.77308" transform="matrix(-0.866025 -0.5 -0.5 0.866025 287.359 239.574)" fill="#FFEADB"/>
<circle opacity="0.5" cx="2.23072" cy="2.23072" r="2.23072" transform="matrix(-0.866025 -0.5 -0.5 0.866025 402.328 29.3481)" fill="#FFEADB"/>
<circle opacity="0.5" cx="2.23072" cy="2.23072" r="2.23072" transform="matrix(-0.866025 -0.5 -0.5 0.866025 329.353 105.371)" fill="#FFEADB"/>
<path d="M939.653 68.1163L1252.38 -152.133L1179.44 -347.215L792.616 -138.297L939.653 68.1163Z" stroke="url(#paint13_linear_4924_12493)" stroke-opacity="0.3" stroke-width="0.901776" stroke-dasharray="0.9 4.51 1.8 4.51"/>
<circle opacity="0.8" cx="723.891" cy="217.576" r="11.4407" transform="rotate(120 723.891 217.576)" stroke="#FEC4A4" stroke-width="0.901776"/>
<circle opacity="0.8" cx="855.017" cy="293.282" r="14.0083" transform="rotate(120 855.017 293.282)" stroke="#FF874E" stroke-width="0.901776"/>
<circle opacity="0.3" cx="855.017" cy="293.282" r="21.374" transform="rotate(120 855.017 293.282)" stroke="#FF874E" stroke-width="0.901776"/>
<circle opacity="0.3" cx="701.367" cy="481.415" r="19.8109" transform="rotate(120 701.367 481.415)" stroke="#FF874E" stroke-width="0.901776"/>
<circle opacity="0.8" cx="940.929" cy="66.4818" r="12.9728" transform="rotate(120 940.929 66.4818)" stroke="#FF874E" stroke-width="0.901776"/>
<circle opacity="0.3" cx="940.929" cy="66.4818" r="19.8109" transform="rotate(120 940.929 66.4818)" stroke="#FF874E" stroke-width="0.901776"/>
<circle opacity="0.3" cx="723.891" cy="217.576" r="17.4983" transform="rotate(120 723.891 217.576)" stroke="#FEC4A4" stroke-width="0.901776"/>
<g opacity="0.7">
<circle opacity="0.8" cx="592.959" cy="373.483" r="10.8485" transform="rotate(120 592.959 373.483)" stroke="#FEC4A4" stroke-width="0.901776"/>
<circle opacity="0.3" cx="592.958" cy="373.483" r="16.6045" transform="rotate(120 592.958 373.483)" stroke="#FEC4A4" stroke-width="0.901776"/>
</g>
<g opacity="0.7">
<circle opacity="0.8" cx="793.444" cy="26.2311" r="10.8485" transform="rotate(120 793.444 26.2311)" stroke="#FEC4A4" stroke-width="0.901776"/>
<circle opacity="0.3" cx="793.444" cy="26.2315" r="16.6045" transform="rotate(120 793.444 26.2315)" stroke="#FEC4A4" stroke-width="0.901776"/>
</g>
<circle opacity="0.8" cx="1013.02" cy="384.503" r="17.1781" transform="rotate(120 1013.02 384.503)" stroke="#FC5200" stroke-width="0.901776"/>
<circle opacity="0.3" cx="1013.02" cy="384.502" r="26.1585" transform="rotate(120 1013.02 384.502)" stroke="#FC5200" stroke-width="0.901776"/>
<g opacity="0.7">
<circle opacity="0.8" cx="1116.91" cy="113.37" r="17.1781" transform="rotate(120 1116.91 113.37)" stroke="#FC5200" stroke-width="0.901776"/>
<circle opacity="0.3" cx="1116.91" cy="113.37" r="26.1585" transform="rotate(120 1116.91 113.37)" stroke="#FC5200" stroke-width="0.901776"/>
</g>
</g>
<defs>
<linearGradient id="paint0_linear_4924_12493" x1="1208.95" y1="456" x2="33.4517" y2="3.78897e-05" gradientUnits="userSpaceOnUse">
<stop stop-color="#15252D"/>
<stop offset="0.313534" stop-color="#15252D" stop-opacity="0.56"/>
<stop offset="0.467366" stop-color="#15252D" stop-opacity="0.19"/>
<stop offset="1" stop-color="#15252D" stop-opacity="0"/>
</linearGradient>
<linearGradient id="paint1_linear_4924_12493" x1="1013.75" y1="385.928" x2="668.601" y2="186.656" gradientUnits="userSpaceOnUse">
<stop stop-color="#FC5200"/>
<stop offset="1" stop-color="#FEC4A4"/>
</linearGradient>
<linearGradient id="paint2_linear_4924_12493" x1="774.465" y1="800.506" x2="429.317" y2="601.235" gradientUnits="userSpaceOnUse">
<stop stop-color="#FC5200"/>
<stop offset="1" stop-color="#FEC4A4"/>
</linearGradient>
<radialGradient id="paint3_radial_4924_12493" cx="0" cy="0" r="1" gradientUnits="userSpaceOnUse" gradientTransform="translate(194.782 -1023.44) rotate(89.3051) scale(441.859)">
<stop stop-color="#FC5200"/>
<stop offset="1" stop-color="#FC5200" stop-opacity="0"/>
</radialGradient>
<radialGradient id="paint4_radial_4924_12493" cx="0" cy="0" r="1" gradientUnits="userSpaceOnUse" gradientTransform="translate(200.14 -840.767) rotate(90) scale(492.882)">
<stop stop-color="#FF874E"/>
<stop offset="1" stop-color="#FF874E" stop-opacity="0"/>
</radialGradient>
<radialGradient id="paint5_radial_4924_12493" cx="0" cy="0" r="1" gradientUnits="userSpaceOnUse" gradientTransform="translate(200.141 -689.584) rotate(90) scale(526.107)">
<stop stop-color="#FEC4A4"/>
<stop offset="0.83634" stop-color="#FEC4A4" stop-opacity="0"/>
</radialGradient>
<linearGradient id="paint6_linear_4924_12493" x1="200.14" y1="-613.467" x2="200.14" y2="-365.038" gradientUnits="userSpaceOnUse">
<stop stop-color="#FFEADB"/>
<stop offset="1" stop-color="#FFEADB" stop-opacity="0"/>
</linearGradient>
<linearGradient id="paint7_linear_4924_12493" x1="200.141" y1="-465.967" x2="200.141" y2="-286.852" gradientUnits="userSpaceOnUse">
<stop stop-color="#FFEADB"/>
<stop offset="1" stop-color="#FFEADB" stop-opacity="0"/>
</linearGradient>
<linearGradient id="paint8_linear_4924_12493" x1="200.141" y1="-345.382" x2="200.141" y2="-222.934" gradientUnits="userSpaceOnUse">
<stop stop-color="#FFEADB"/>
<stop offset="1" stop-color="#FFEADB" stop-opacity="0"/>
</linearGradient>
<linearGradient id="paint9_linear_4924_12493" x1="1183.83" y1="483.699" x2="147.325" y2="-114.727" gradientUnits="userSpaceOnUse">
<stop stop-color="#FC5200"/>
<stop offset="0.630208" stop-color="#FFEADB"/>
<stop offset="1" stop-color="#FFEADB" stop-opacity="0"/>
</linearGradient>
<linearGradient id="paint10_linear_4924_12493" x1="992.958" y1="773.259" x2="146.655" y2="-73.0437" gradientUnits="userSpaceOnUse">
<stop stop-color="#FC5200"/>
<stop offset="0.630208" stop-color="#FFEADB"/>
<stop offset="1" stop-color="#FFEADB" stop-opacity="0"/>
</linearGradient>
<linearGradient id="paint11_linear_4924_12493" x1="756.935" y1="1062.26" x2="158.509" y2="25.7509" gradientUnits="userSpaceOnUse">
<stop stop-color="#FC5200"/>
<stop offset="0.630208" stop-color="#FFEADB"/>
<stop offset="1" stop-color="#FFEADB" stop-opacity="0"/>
</linearGradient>
<linearGradient id="paint12_linear_4924_12493" x1="1339.66" y1="172.753" x2="183.589" y2="-137.016" gradientUnits="userSpaceOnUse">
<stop stop-color="#FC5200"/>
<stop offset="0.630208" stop-color="#FFEADB"/>
<stop offset="1" stop-color="#FFEADB" stop-opacity="0"/>
</linearGradient>
<linearGradient id="paint13_linear_4924_12493" x1="1252.79" y1="-27.9801" x2="907.644" y2="-227.251" gradientUnits="userSpaceOnUse">
<stop stop-color="#FC5200"/>
<stop offset="1" stop-color="#FEC4A4"/>
</linearGradient>
</defs>
</svg>